<?xml version="1.0"?>
<svg xmlns="http://www.w3.org/2000/svg" xmlns:xlink="http://www.w3.org/1999/xlink" xmlns:svgjs="http://svgjs.com/svgjs" version="1.1" width="512" height="512" x="0" y="0" viewBox="0 0 152 152" style="enable-background:new 0 0 512 512" xml:space="preserve" class=""><rect width="152" height="152" rx="20" ry="20" fill="#020202" shape="rounded"/><g transform="matrix(0.7,0,0,0.7,22.800000000000004,22.800000000000004)"><g xmlns="http://www.w3.org/2000/svg" id="SvgjsG1044" data-name="Layer 2"><g id="SvgjsG1043" data-name="00.Home"><path id="SvgjsPath1042" d="m76 0a76 76 0 1 0 76 76 76 76 0 0 0 -76-76zm29.46 111.38a1.69 1.69 0 0 1 -1.68 1.68h-18.17a1.68 1.68 0 0 1 -1.67-1.68v-19.82a1.68 1.68 0 0 0 -1.68-1.68h-9.9a1.68 1.68 0 0 0 -1.67 1.68v19.82a1.69 1.69 0 0 1 -1.69 1.68h-21.48a1.68 1.68 0 0 1 -1.67-1.68v-28.65a1.67 1.67 0 0 1 .65-1.3l28.13-21.94a1.7 1.7 0 0 1 1.86-.14l.2.14 28.13 21.94a1.66 1.66 0 0 1 .64 1.3zm15.18-37.7-4.21 5.26a1.7 1.7 0 0 1 -2.32.31l-37.11-27.44a1.6 1.6 0 0 0 -.5-.26 1.65 1.65 0 0 0 -.49-.06 1.55 1.55 0 0 0 -1 .32l-37.11 27.44a1.69 1.69 0 0 1 -2.32-.31l-4.21-5.26a1.67 1.67 0 0 1 .32-2.4l43.31-32a1.7 1.7 0 0 1 1-.34 1.57 1.57 0 0 1 .49.07 1.88 1.88 0 0 1 .5.27l18.54 13.72v-4.5a1.68 1.68 0 0 1 1.67-1.68h9.9a1.69 1.69 0 0 1 1.68 1.68v13.4a1.71 1.71 0 0 0 .67 1.36l10.87 8a1.69 1.69 0 0 1 .32 2.42z" fill="#ffffff" data-original="#000000" style="" class=""/></g></g></g></svg>
